<svg xmlns="http://www.w3.org/2000/svg" version="1.0" viewBox="0 0 512 403">
 <path fill="white" d="M124.6 14.1c-35.4 5.6-60.8 18-80.1 39.1-6.3 6.9-13.1 18.7-18.5 32.3-8.7 22.1-15 58.7-15 87.5.1 16.5 2.3 42.7 4.3 50.1.8 3 2.9 11.3 4.6 18.5 5.8 24.5 9.9 36 20.2 56.9 17.1 34.8 42.5 58.9 74.5 71 8.2 3.1 23.3 7.2 33.4 9 20.5 3.8 65.7 6.7 113.5 7.2 37.6.5 41.5.3 67.5-3.8 15.6-2.4 37.7-10.4 52.9-19.1 34.2-19.6 60.4-51.9 86.7-106.3 25.7-53.4 34.2-95.4 26.9-133-8-40.7-31.2-69.1-65-79.6-15.7-4.8-28.6-6.6-56.5-7.9-12.4-.5-27-1.7-32.5-2.5S325.4 31.1 318 30c-7.4-1.1-23.2-3.8-35-6-25.6-4.8-57.9-9.5-74.5-10.9-6.6-.6-25.5-1-42-1-24.2.1-32.3.5-41.9 2z"></path>
</svg>